<svg class="animated" id="freepik_stories-couple" xmlns="http://www.w3.org/2000/svg" xmlns:xlink="http://www.w3.org/1999/xlink" viewBox="0 0 500 500" version="1.1" xmlns:svgjs="http://svgjs.com/svgjs"><style>svg#freepik_stories-couple:not(.animated) .animable {opacity: 0;}svg#freepik_stories-couple.animated #freepik--Hearts--inject-1--inject-3 {animation: 3s Infinite  linear floating;animation-delay: 1s;}            @keyframes floating {                0% {                    opacity: 1;                    transform: translateY(0px);                }                50% {                    transform: translateY(-10px);                }                100% {                    opacity: 1;                    transform: translateY(0px);                }            }        </style><g id="freepik--Shadow--inject-1--inject-3" class="animable" style="transform-origin: 252.5px 407.65px;"><ellipse cx="252.5" cy="407.65" rx="181.5" ry="25" style="fill: rgb(255, 129, 174); transform-origin: 252.5px 407.65px;" id="el12g0l29f1moi" class="animable"></ellipse><g id="el5avyk5nrm7t"><g style="opacity: 0.5; transform-origin: 252.5px 407.65px;" class="animable"><ellipse cx="252.5" cy="407.65" rx="181.5" ry="25" style="fill: rgb(255, 255, 255); transform-origin: 252.5px 407.65px;" id="elzmq3rq6fqzk" class="animable"></ellipse></g></g></g><g id="freepik--Hearts--inject-1--inject-3" class="animable animator-active" style="transform-origin: 263.81px 234.95px;"><path d="M421,193.32a8.48,8.48,0,0,0-.31-1.67c.2-2.42.31-4.86.31-7.33a88,88,0,0,0-174-18.7,88,88,0,0,0-168,36.7c0,37.31,25.63,68.44,54,90,25,19,73,39,84,57s8,38,8,38,55-19,110-52S423,222.32,421,193.32Z" style="fill: rgb(255, 129, 174); transform-origin: 250.043px 241.797px;" id="elovl2dt97k6e" class="animable"></path><path d="M92.54,155.38a86.51,86.51,0,0,0-4.45,85.11" style="fill: none; stroke: rgb(0, 0, 0); stroke-miterlimit: 10; transform-origin: 85.7645px 197.935px;" id="elbovl8dcsg9h" class="animable"></path><path d="M146.62,116.69a88,88,0,0,0-15.77,5.37" style="fill: none; stroke: rgb(0, 0, 0); stroke-miterlimit: 10; transform-origin: 138.735px 119.375px;" id="elod0alxva5xn" class="animable"></path><path d="M231.05,142a88.14,88.14,0,0,0-79.32-26.35" style="fill: none; stroke: rgb(0, 0, 0); stroke-miterlimit: 10; transform-origin: 191.39px 128.165px;" id="eluho9qcg4ykb" class="animable"></path><path d="M421,186.27q0-1,0-2a88,88,0,0,0-174-18.7,88.59,88.59,0,0,0-11.82-18.93" style="fill: none; stroke: rgb(0, 0, 0); stroke-miterlimit: 10; transform-origin: 328.09px 141.247px;" id="el4j03xlhm8pr" class="animable"></path><path d="M417.88,216.9a100.21,100.21,0,0,0,3-16.71" style="fill: none; stroke: rgb(0, 0, 0); stroke-miterlimit: 10; transform-origin: 419.38px 208.545px;" id="elcxymu74cjw5" class="animable"></path><path d="M97.25,256c9.74,14,22.44,26.18,35.74,36.28,25,19,73,39,84,57s8,38,8,38,55-19,110-52c26.13-15.67,47.29-42,62.09-68.34" style="fill: none; stroke: rgb(0, 0, 0); stroke-miterlimit: 10; transform-origin: 247.165px 321.64px;" id="elinw2iksn7xo" class="animable"></path><path d="M398.06,180.15a13.28,13.28,0,0,0-1.68-7.92c-2.24-3.68-7-6.13-11.68-8.5a57.77,57.77,0,0,1-7.1-4c-5.17-3.72-13.85-11.61-13.85-22.76a22.17,22.17,0,0,1,40.55-12.4,22.17,22.17,0,0,1,42.78,8.17c0,.53,0,1.06-.06,1.6,0,.14,0,.27.05.41.52,7.49-7.76,26.85-20.92,34.74A159.07,159.07,0,0,1,400,181.79l-2.34.8Z" style="fill: rgb(46, 53, 58); transform-origin: 405.422px 146.58px;" id="ely9fa5y75rtn" class="animable"></path><path d="M424.91,112a20.68,20.68,0,0,1,20.67,20.67c0,.58,0,1.15-.08,1.72a1.77,1.77,0,0,1,.08.4c.46,6.81-7.29,25.59-20.2,33.35a155.1,155.1,0,0,1-25.84,12.21,14.65,14.65,0,0,0-1.88-8.93c-3.76-6.15-13.51-8.91-19.18-13-7-5-13.23-12.48-13.23-21.54a20.67,20.67,0,0,1,39.46-8.62A20.68,20.68,0,0,1,424.91,112m0-3A23.82,23.82,0,0,0,404,121.64a23.66,23.66,0,0,0-41.74,15.28c0,8.76,5.15,17.27,14.48,24a56.25,56.25,0,0,0,7.29,4.17c4.45,2.28,9.06,4.64,11.08,7.95a11.75,11.75,0,0,1,1.48,6.91l-.74,4.9,4.68-1.62a155.71,155.71,0,0,0,26.4-12.47c14.15-8.49,22.17-28.5,21.65-36.13,0-.13,0-.26,0-.38,0-.52.05-1,.05-1.53A23.7,23.7,0,0,0,424.91,109Z" style="fill: rgb(255, 255, 255); transform-origin: 405.445px 146.925px;" id="elzrjmy5zux7" class="animable"></path><path d="M330.05,119.76a5.9,5.9,0,0,0-.74-3.49c-1.51-2.48-4-3.84-6.66-5.29-3.73-2-8-4.33-9.2-10.16a12.44,12.44,0,0,1,2.32-10.48,11.23,11.23,0,0,1,8.92-4.11h0a12,12,0,0,1,9.09,4.22A11.89,11.89,0,0,1,356.19,96c0,.26,0,.52,0,.77a1.23,1.23,0,0,1,0,.19c.27,3.84-3.76,13.9-10.88,18.17A78.46,78.46,0,0,1,332,121.39l-2.34.81Z" style="fill: rgb(46, 53, 58); transform-origin: 334.665px 103.15px;" id="eljqhg1bnzm2g" class="animable"></path><path d="M344.29,85.6A10.39,10.39,0,0,1,354.69,96a8.31,8.31,0,0,1,0,.87,1.18,1.18,0,0,1,0,.2c.23,3.42-3.66,12.87-10.16,16.77a77.9,77.9,0,0,1-13,6.14,7.41,7.41,0,0,0-1-4.49c-4-6.6-13.76-6-15.67-15-1.4-6.6,2.8-12.78,9.77-12.78a10.4,10.4,0,0,1,9.45,6.06,10.39,10.39,0,0,1,10.15-8.19m0-3a13.44,13.44,0,0,0-10.77,5.46,13.38,13.38,0,0,0-8.83-3.33,12.69,12.69,0,0,0-10.08,4.67A13.92,13.92,0,0,0,312,101.13c1.38,6.51,6.13,9.09,9.95,11.17,2.58,1.4,4.8,2.62,6.1,4.75a4.42,4.42,0,0,1,.54,2.48l-.73,4.89,4.68-1.61a81,81,0,0,0,13.55-6.41c7.22-4.33,11.95-14.68,11.61-19.55,0,0,0-.09,0-.14,0-.24,0-.48,0-.72a13.41,13.41,0,0,0-13.4-13.39Z" style="fill: rgb(255, 255, 255); transform-origin: 334.671px 103.5px;" id="el8q4nmq1hijd" class="animable"></path></g><g id="freepik--Couch--inject-1--inject-3" class="animable" style="transform-origin: 251.044px 317.794px;"><path d="M384.87,304.34s-1.81-69.91-26.53-77.74c-25.21-8-52.14-7.32-78.25-6.14-24.62,1.12-86.15.44-110.71,2.06-27,1.79-37,14.21-43,39.21A208.61,208.61,0,0,0,121,304.34l-6,18.08h276Z" style="fill: rgb(255, 255, 255); stroke: rgb(46, 53, 58); stroke-linecap: round; stroke-linejoin: round; transform-origin: 253px 271.084px;" id="ellw6tcnh4ldb" class="animable"></path><path d="M141.44,312.78V297.11s-.6-11.45-13.86-12.66S78.16,311.58,78.77,317.6,86,366.42,90.22,368.23s15.06,10.24,24.71,5.42S141.44,312.78,141.44,312.78Z" style="fill: rgb(255, 255, 255); stroke: rgb(46, 53, 58); stroke-linecap: round; stroke-linejoin: round; transform-origin: 110.101px 329.766px;" id="el563g4ey9o18" class="animable"></path><path d="M359.55,312.78V297.11s.61-11.45,13.87-12.66,49.42,27.13,48.81,33.15-7.23,48.82-11.45,50.63-15.07,10.24-24.71,5.42S359.55,312.78,359.55,312.78Z" style="fill: rgb(255, 255, 255); stroke: rgb(46, 53, 58); stroke-linecap: round; stroke-linejoin: round; transform-origin: 390.894px 329.766px;" id="eliai7ek60rck" class="animable"></path><path d="M141.44,312.78a27.69,27.69,0,0,1-3.17,2.82c-8.1,6.69-28.77,22.49-28.77,22.49H392.7L359.55,311Z" style="fill: rgb(255, 255, 255); stroke: rgb(46, 53, 58); stroke-linecap: round; stroke-linejoin: round; transform-origin: 251.1px 324.545px;" id="elfel6m71lk28" class="animable"></path><polygon points="109.5 338.09 109.5 363 392.53 363 392.7 338.09 109.5 338.09" style="fill: rgb(46, 53, 58); stroke: rgb(46, 53, 58); stroke-linecap: round; stroke-linejoin: round; transform-origin: 251.1px 350.545px;" id="eli9oln2eskv" class="animable"></polygon><path d="M101.67,387.51,94,411.68a3.19,3.19,0,0,0,3,4.16h0a3.17,3.17,0,0,0,2.61-1.37l18.34-26.36Z" style="fill: rgb(255, 255, 255); stroke: rgb(46, 53, 58); stroke-linecap: round; stroke-linejoin: round; transform-origin: 105.899px 401.675px;" id="elbeqiqeemqd6" class="animable"></path><path d="M400.5,387.51l7.72,24.17a3.19,3.19,0,0,1-3,4.16h0a3.17,3.17,0,0,1-2.61-1.37l-18.34-26.36Z" style="fill: rgb(255, 255, 255); stroke: rgb(46, 53, 58); stroke-linecap: round; stroke-linejoin: round; transform-origin: 396.321px 401.675px;" id="elub6htcbizko" class="animable"></path><path d="M416.11,310.52c-4-2-8.51-2.26-13.93.45-10.85,5.43-9.65,27.12-9.65,27.12V362.2h-283V338.09s1.21-21.69-9.64-27.12c-5.42-2.71-9.94-2.41-13.94-.45-6.93,3.4-10.6,11.17-9.56,18.83,1.7,12.56,4.91,34.33,7.83,43.1,4.22,12.65,4.22,15.06,13.26,18.08,7.84,2.61,108.62.69,135.21.13,26.59.56,164.08,2.48,171.93-.13,9-3,9-5.43,13.26-18.08,2.92-8.77,6.13-30.54,7.83-43.1C426.71,321.69,423.05,313.92,416.11,310.52Z" style="fill: rgb(46, 53, 58); stroke: rgb(46, 53, 58); stroke-linecap: round; stroke-linejoin: round; transform-origin: 251.044px 350.422px;" id="elieztq01q73e" class="animable"></path><path d="M361.32,391.83c4,.1,7.62.2,10.74.32" style="fill: none; stroke: rgb(255, 255, 255); stroke-linecap: round; stroke-linejoin: round; stroke-width: 0.5px; transform-origin: 366.69px 391.99px;" id="eliwso3r4bg9b" class="animable"></path><path d="M131.52,391.4c37-.22,153.94-.8,215.49.16" style="fill: none; stroke: rgb(255, 255, 255); stroke-linecap: round; stroke-linejoin: round; stroke-width: 0.5px; transform-origin: 239.265px 391.292px;" id="elauc4to86464" class="animable"></path><path d="M120,391.47l5.55,0" style="fill: none; stroke: rgb(255, 255, 255); stroke-linecap: round; stroke-linejoin: round; stroke-width: 0.5px; transform-origin: 122.775px 391.47px;" id="el4bqo7uadx5z" class="animable"></path><polyline points="379.21 361.6 389.73 361.58 391.09 343.23" style="fill: none; stroke: rgb(255, 255, 255); stroke-linecap: round; stroke-linejoin: round; stroke-width: 0.5px; transform-origin: 385.15px 352.415px;" id="elph7iw2lzx8p" class="animable"></polyline><line x1="265.5" y1="361.85" x2="371.66" y2="361.62" style="fill: none; stroke: rgb(255, 255, 255); stroke-linecap: round; stroke-linejoin: round; stroke-width: 0.5px; transform-origin: 318.58px 361.735px;" id="eln1wxwzzrufp" class="animable"></line><line x1="134.7" y1="362.14" x2="259.54" y2="361.87" style="fill: none; stroke: rgb(255, 255, 255); stroke-linecap: round; stroke-linejoin: round; stroke-width: 0.5px; transform-origin: 197.12px 362.005px;" id="elib5302awe7n" class="animable"></line><polyline points="110.5 352.74 109.5 362.2 120.78 362.18" style="fill: none; stroke: rgb(255, 255, 255); stroke-linecap: round; stroke-linejoin: round; stroke-width: 0.5px; transform-origin: 115.14px 357.47px;" id="el1o3agxb2agn" class="animable"></polyline><path d="M180.22,267s-15.27,1.85-23.28,5.55S138,284.84,131.49,287.3s-14.55,6.78-10.91,8.63,9.69,12,9.94,18-.49,11,3.15,13.43,10-3.56,15.57-2.7,15.71,6.4,32.43.86,30.55-10.37,30.55-10.37a18.68,18.68,0,0,0,6.55,1.74c2.91,0-2.18-8-2.18-12.33S205.68,279.91,205,273.13s2.18-10.48-2.18-10.48S180.22,267,180.22,267Z" style="fill: rgb(46, 53, 58); stroke: rgb(46, 53, 58); stroke-linecap: round; stroke-linejoin: round; transform-origin: 169.67px 295.301px;" id="elczevsqsddh" class="animable"></path><g id="elzwvecyicwfc"><path d="M328,220.74s4.72.31,7.86,7.86a24.77,24.77,0,0,0,8.8,11s11.94,2.83,18.54,9.11S373,271,373.27,276.37s10.05,12.88,11,17.6-3.77,12.25-9.12,14.45-9.42,4.4-9.42,6.92,1.57,6.28-2.52,9.42S341.53,332,337.76,332s-34.89-.31-49-.31-23.26,1.25-46.83-1.89-26.08-5.66-32.05-4.71-38,8.17-43.68,8.17-15.1,2.33-22,.63-.32-9.75,15.71-13.52,83-44.31,83-44.31l16-52.8,33-1.88S313.87,220.43,328,220.74Z" style="fill: rgb(255, 129, 174); opacity: 0.7; mix-blend-mode: multiply; transform-origin: 262.936px 277.594px;" class="animable"></path></g></g><g id="freepik--Characters--inject-1--inject-3" class="animable" style="transform-origin: 259.499px 293.442px;"><path d="M331.35,305.09s-2,21.5-5.5,24.5-22-1-37.5-4.5-23.5-14-13-20.5S331.35,305.09,331.35,305.09Z" style="fill: rgb(46, 53, 58); stroke: rgb(46, 53, 58); stroke-linecap: round; stroke-linejoin: round; transform-origin: 300.97px 316.235px;" id="el04seq7z82r67" class="animable"></path><path d="M324.75,210.94S323,219.48,324.5,225s1.26,7.28,9,10.54,21.33,7.28,22.84,10.54S333,309.58,333,309.58s-19.33-.25-31.13-.25a245.32,245.32,0,0,1-26.85-2s12.55-32.37,14.81-44.67,2.76-19.83,5.52-21.34,7-1,10.79-6.77,3.51-9,3.51-9S321,207.18,324.75,210.94Z" style="fill: rgb(255, 255, 255); transform-origin: 315.713px 260.006px;" id="elicu99m2x95q" class="animable"></path><g style="clip-path: url(&quot;#freepik--clip-path--inject-1--inject-3&quot;); transform-origin: 333.627px 284.559px;" id="elbr5fw9ay5hb" class="animable"><g id="ell3hhf0tpsjj"><path d="M345.61,270.39l-10.37-8.17,4.4,6.6s-3.77-1.57-3.14,0,4.71,6,4.71,6L333,289.88s-8.8,2.51-6.91,3.46,5.34.31,5.65,1.88-11,10.06-11.31,11,13.2.63,13.2.63l13.2-33.94Z" style="fill: rgb(255, 129, 174); opacity: 0.5; mix-blend-mode: multiply; transform-origin: 333.627px 284.559px;" class="animable"></path></g></g><path d="M324.75,210.94S323,219.48,324.5,225s1.26,7.28,9,10.54,21.33,7.28,22.84,10.54S333,309.58,333,309.58s-19.33-.25-31.13-.25a245.32,245.32,0,0,1-26.85-2s12.55-32.37,14.81-44.67,2.76-19.83,5.52-21.34,7-1,10.79-6.77,3.51-9,3.51-9S321,207.18,324.75,210.94Z" style="fill: none; stroke: rgb(46, 53, 58); stroke-linecap: round; stroke-linejoin: round; transform-origin: 315.713px 260.006px;" id="eliu2z81458fo" class="animable"></path><g id="elst7sawecver"><path d="M298.79,239.28s4.71,17,4.71,26.4a45.06,45.06,0,0,1-3.46,17s5,1.57,4.4,2.52-9.11.31-9.11.31,7.54,3.77,6.28,4.09-6,0-7.22,0-5.35,11-8.49,15.08-10.06,3.77-10.06,3.77,2.2-13.2,3.46-16.65S289,240.23,289,240.23Z" style="fill: rgb(255, 129, 174); opacity: 0.5; mix-blend-mode: multiply; transform-origin: 290.165px 273.868px;" class="animable"></path></g><path d="M333.54,235.54c-7.78-3.26-7.53-5-9-10.54s.25-14.06.25-14.06c-3.76-3.76-15.06,14.56-15.06,14.56s.25,3.26-3.51,9a13.62,13.62,0,0,1-3.05,3.4c3.13,4.72,8.84,12.9,11.2,13.38,2.79.55,15.85-11.49,20-15.44Z" style="fill: rgb(46, 53, 58); stroke: rgb(46, 53, 58); stroke-linecap: round; stroke-linejoin: round; transform-origin: 318.77px 230.865px;" id="el79zxgrufkl" class="animable"></path><path d="M293.13,275.1s6.6,5,20.15,5" style="fill: none; stroke: rgb(46, 53, 58); stroke-linecap: round; stroke-linejoin: round; stroke-width: 0.75px; transform-origin: 303.205px 277.6px;" id="elwoa7fb90tw" class="animable"></path><path d="M288.17,276.75s21.14,9.91,40,9.91" style="fill: none; stroke: rgb(46, 53, 58); stroke-linecap: round; stroke-linejoin: round; stroke-width: 0.75px; transform-origin: 308.17px 281.705px;" id="el1uu228mj7aa" class="animable"></path><path d="M287.84,283.69s0,3,14.21,4.3" style="fill: none; stroke: rgb(46, 53, 58); stroke-linecap: round; stroke-linejoin: round; stroke-width: 0.75px; transform-origin: 294.945px 285.84px;" id="elzdnhyic040k" class="animable"></path><path d="M285.6,281.47s-4.77,17.32-12.05,23.09-12.05,5.27-15.31,3.27-12.55-22.34-11.54-27.36S285.6,281.47,285.6,281.47Z" style="fill: rgb(255, 255, 255); transform-origin: 266.112px 293.838px;" id="elrt541d26lr" class="animable"></path><g style="clip-path: url(&quot;#freepik--clip-path-2--inject-1--inject-3&quot;); transform-origin: 266.112px 293.838px;" id="el8mzc68fs9nq" class="animable"><g id="el6ujxr1dslkl"><path d="M285.6,281.47s-4.77,17.32-12.05,23.09-12.05,5.27-15.31,3.27-12.55-22.34-11.54-27.36S285.6,281.47,285.6,281.47Z" style="fill: rgb(255, 129, 174); opacity: 0.5; mix-blend-mode: multiply; transform-origin: 266.112px 293.838px;" class="animable"></path></g></g><path d="M285.6,281.47s-4.77,17.32-12.05,23.09-12.05,5.27-15.31,3.27-12.55-22.34-11.54-27.36S285.6,281.47,285.6,281.47Z" style="fill: none; stroke: rgb(46, 53, 58); stroke-linecap: round; stroke-linejoin: round; transform-origin: 266.112px 293.838px;" id="el7jsxqwot255" class="animable"></path><path d="M324.5,225c-1.5-5.52.25-14.06.25-14.06-3.76-3.76-15.06,14.56-15.06,14.56s.25,3.26-3.51,9c-.23.35-.46.67-.69,1,2.33,3.75,7.27,10.81,11,10.07,3.51-.7,9.48-7.92,12.75-12.19C325.79,231.23,325.65,229.21,324.5,225Z" style="fill: rgb(255, 255, 255); transform-origin: 317.365px 228.028px;" id="elmjg8ner8e6" class="animable"></path><g style="clip-path: url(&quot;#freepik--clip-path-3--inject-1--inject-3&quot;); transform-origin: 319.205px 226.135px;" id="elzzrt15l8qu" class="animable"><g id="eli3geb6r7gx"><path d="M309.19,228s1.22.88,5.94,2.14a33.62,33.62,0,0,0,7.85,1.26l4.4,3.45,1.84-1.49a11,11,0,0,1-4.26-6.21,36.61,36.61,0,0,1-1.07-9.73S312.64,228.35,309.19,228Z" style="fill: rgb(255, 129, 174); opacity: 0.5; mix-blend-mode: multiply; transform-origin: 319.205px 226.135px;" class="animable"></path></g></g><path d="M324.5,225c-1.5-5.52.25-14.06.25-14.06-3.76-3.76-15.06,14.56-15.06,14.56s.25,3.26-3.51,9c-.23.35-.46.67-.69,1,2.33,3.75,7.27,10.81,11,10.07,3.51-.7,9.48-7.92,12.75-12.19C325.79,231.23,325.65,229.21,324.5,225Z" style="fill: none; stroke: rgb(46, 53, 58); stroke-linecap: round; stroke-linejoin: round; transform-origin: 317.365px 228.028px;" id="elfgvq80sgpiu" class="animable"></path><path d="M327.26,202.91s1.76-.25,2,3-1.25,5-2.51,5h-2a48.86,48.86,0,0,1-1.25,5.78c-1,3.76-1,5.77-9,9s-10,2.76-12.3-.75-2.25-16.31-2.51-21.84-1.25-11.79-1.25-11.79a19.12,19.12,0,0,1,5.77-4c3.77-1.75,15.31.25,18.83,2s2.25,10.79,2.25,10.79Z" style="fill: rgb(255, 255, 255); transform-origin: 313.863px 207.248px;" id="els3i6kt4bhuh" class="animable"></path><g style="clip-path: url(&quot;#freepik--clip-path-4--inject-1--inject-3&quot;); transform-origin: 319.449px 208.605px;" id="elk652nfpe0zn" class="animable"><g id="elq43urpbqpof"><path d="M329.27,205.93c-.25-3.27-2-3-2-3l-2-2.76s1-7-1.17-9.85l-7.22,1.39s-2.73,1.52-1.21,7.89a37,37,0,0,1,.61,16.68c-1,6-6.68,10.61-6.68,10.61s1.36-.17,3.36-.52c.48-.18,1-.38,1.52-.6,8-3.26,8-5.27,9-9a48.86,48.86,0,0,0,1.25-5.78h2C328,210.94,329.52,209.19,329.27,205.93Z" style="fill: rgb(255, 129, 174); opacity: 0.5; mix-blend-mode: multiply; transform-origin: 319.449px 208.605px;" class="animable"></path></g></g><path d="M327.26,202.91s1.76-.25,2,3-1.25,5-2.51,5h-2a48.86,48.86,0,0,1-1.25,5.78c-1,3.76-1,5.77-9,9s-10,2.76-12.3-.75-2.25-16.31-2.51-21.84-1.25-11.79-1.25-11.79a19.12,19.12,0,0,1,5.77-4c3.77-1.75,15.31.25,18.83,2s2.25,10.79,2.25,10.79Z" style="fill: none; stroke: rgb(46, 53, 58); stroke-linecap: round; stroke-linejoin: round; transform-origin: 313.863px 207.248px;" id="els4xiffuczxl" class="animable"></path><path d="M303.39,219.81a11.48,11.48,0,0,0,7.05-.41" style="fill: none; stroke: rgb(46, 53, 58); stroke-linecap: round; stroke-linejoin: round; transform-origin: 306.915px 219.79px;" id="el0t0rpmvfpxm" class="animable"></path><path d="M303.42,206.18c0,.83-.34,1.5-.75,1.5s-.76-.67-.76-1.5.34-1.51.76-1.51S303.42,205.34,303.42,206.18Z" style="fill: rgb(46, 53, 58); transform-origin: 302.665px 206.175px;" id="el3otnx5oe09l" class="animable"></path><path d="M310.7,207.18c0,.83-.34,1.51-.76,1.51s-.75-.68-.75-1.51.34-1.51.75-1.51S310.7,206.35,310.7,207.18Z" style="fill: rgb(46, 53, 58); transform-origin: 309.945px 207.18px;" id="el81xlu1ak4xh" class="animable"></path><path d="M301.16,201.41a2.47,2.47,0,0,1,2.76-.25" style="fill: none; stroke: rgb(46, 53, 58); stroke-linecap: round; stroke-linejoin: round; transform-origin: 302.54px 201.131px;" id="el49blk9x3mng" class="animable"></path><path d="M309.44,201.91s3-1.26,5.27,2.26" style="fill: none; stroke: rgb(46, 53, 58); stroke-linecap: round; stroke-linejoin: round; transform-origin: 312.075px 202.93px;" id="elmn68v7lx1jn" class="animable"></path><polyline points="304.93 212.95 304.42 214.96 309.19 215.46" style="fill: none; stroke: rgb(46, 53, 58); stroke-linecap: round; stroke-linejoin: round; transform-origin: 306.805px 214.205px;" id="elbopcjfkuoha" class="animable"></polyline><path d="M332.28,185.34c-.25-4-6.52-2.51-10.54-4s-11-6-17.07-6-7,5-7,5l.25-4s-4,2.26-3.77,6.52,3.27,9.29,5.27,9,19.08-1,20.08,1.51-2.76,7.27-2.76,7.27c.25,2.51,4,2,4.27,3s0,4.26-.25,7.27a8,8,0,0,0,1,4,5.64,5.64,0,0,1-1,3.5,6.12,6.12,0,0,1-4.77,2s-5.77-5.27-10-4.52-5.27,2.77-5.27,2.77l-.12,0c.11.89.25,1.73.4,2.51.71-1.1,2.79-3.81,6-3.81,4,0,8.29,4.77,8.29,4.77S311,225,308.69,225s-1.76-2.76-3.26-2.51-1,1.76-1.76,1.76a3.94,3.94,0,0,1-2.38-1.42,8.34,8.34,0,0,0,.87,2.17c2.26,3.51,4.27,4,12.3.75s8-5.27,9-9c.1-.38.19-.73.27-1.07a29.81,29.81,0,0,0-1.19-5.23c-.06-3,.32-6,1.17-7,1.25-1.51,3.51-.51,3.51-.51S332.53,189.36,332.28,185.34Z" style="fill: rgb(46, 53, 58); stroke: rgb(46, 53, 58); stroke-linecap: round; stroke-linejoin: round; transform-origin: 313.214px 201.636px;" id="elu1lgmplkxm" class="animable"></path><path d="M305,190.87s-4.62-4.62,3.63-5.61,13.22,5,16.85,5.61,5.28-.33,5.28-.33" style="fill: none; stroke: rgb(255, 255, 255); stroke-miterlimit: 10; stroke-width: 0.5px; transform-origin: 317.235px 188.113px;" id="elzzsadqlm73" class="animable"></path><path d="M319.48,193.38s6,4.1,9.65,2.12" style="fill: none; stroke: rgb(255, 255, 255); stroke-miterlimit: 10; stroke-width: 0.5px; transform-origin: 324.305px 194.71px;" id="elwjrjd1m81f" class="animable"></path><path d="M340.06,311.84s-8.53-6.78-16.81-6.78-13.81,7.78-16.07,11.8,3.27,9,7.78,10.79,14.31,1.26,18.58-2S341.82,322.63,340.06,311.84Z" style="fill: rgb(46, 53, 58); stroke: rgb(46, 53, 58); stroke-linecap: round; stroke-linejoin: round; transform-origin: 323.571px 316.862px;" id="elqw7qzygtx0l" class="animable"></path><path d="M284.34,203.92s3.77-.76,5-7.28-1.5-15.31-14.8-18.07-28.87,8.53-31.38,18.82,4.77,15.06,1,18.83-22.09,4.51-24.1,11.29,6.28,12.3,3.77,16.82-7.28,3.26-7.28,10.29,17.82,18.57,37.65,17.57,41.16-23.6,43.92-38.91S285.85,211.7,284.34,203.92Z" style="fill: rgb(46, 53, 58); stroke: rgb(46, 53, 58); stroke-linecap: round; stroke-linejoin: round; transform-origin: 257.504px 225.199px;" id="elugw6v0yvgjk" class="animable"></path><path d="M276.61,186.91s-5.61-4.63-10.9.66.14,14.25-4.29,19.82S250.19,210,249.2,214s4.29,11.24,1.65,16.85-16.85,0-18.83,4,5.95,10.57,2.64,14.54" style="fill: none; stroke: rgb(255, 255, 255); stroke-linecap: round; stroke-linejoin: round; stroke-width: 0.5px; transform-origin: 254.154px 217.212px;" id="elxbembbo28gk" class="animable"></path><path d="M275.29,185.59a13.68,13.68,0,0,0-13.21-1.65c-7.6,3-6.94,11.89-6.28,18.16s-5.61,6.28-7.26,8.92" style="fill: none; stroke: rgb(255, 255, 255); stroke-linecap: round; stroke-linejoin: round; stroke-width: 0.5px; transform-origin: 261.915px 196.982px;" id="el7187yeyipel" class="animable"></path><path d="M241.6,223.24c-2,5-1.65,6.94-10.57,6.61s-8.92,2.31-5.95,7.93,3.64,6.93,3.64,6.93" style="fill: none; stroke: rgb(255, 255, 255); stroke-linecap: round; stroke-linejoin: round; stroke-width: 0.5px; transform-origin: 232.452px 233.975px;" id="el4kf3j9v2q9m" class="animable"></path><path d="M284.21,213s7.6,4.3,5.62,12.23" style="fill: none; stroke: rgb(255, 255, 255); stroke-linecap: round; stroke-linejoin: round; stroke-width: 0.5px; transform-origin: 287.185px 219.115px;" id="el066k1uyrft6a" class="animable"></path><path d="M265.77,221.24s1.26,9.28.75,13-9,4.26-12.54,4.77-5.53,2.76-6.53,8-6.78,18.57-8.53,21.33-3.77,4.52.25,8.53,5.52,5.78,20.33,7.53,29.61,4.77,31.87-1.5,7.78-32.13,7.78-39.41.25-14-5-14-11.79,3.76-14.05,3.76-2.51-9.53-2.51-9.53Z" style="fill: rgb(255, 255, 255); transform-origin: 267.992px 253.962px;" id="elkbka3366u1" class="animable"></path><g style="clip-path: url(&quot;#freepik--clip-path-5--inject-1--inject-3&quot;); transform-origin: 273.517px 258.163px;" id="elgchfl05ix5s" class="animable"><g id="elg2l292t3306"><path d="M294.13,229.52c-3.21,0-6.89,1.4-9.78,2.49a10.64,10.64,0,0,1,4,.32c4.22,1.18,4.46,8.51,4.06,16.4-3.65-1-8.13-1.22-10.21,0-3.27,2-10.14,2.62-11.45,2.29a12.57,12.57,0,0,0-6.86.33A47,47,0,0,0,256,255c-1.31.66-7.52,3.27-7.52,3.27s3.59.33,10.46-1.3,6.87-3.6,10.46-2,9.16.66,9.81,2.29-.65,3.93-4.9,5.23-9.16,2-5.89,2.95,9.49-.33,10.14,1,1.63,7.19,1.63,7.19l4.91-19a9,9,0,0,1,5.88-.33c.37.12.71.25,1,.38l-.06,1c-.6,10-1.21,21.53-3.33,23.35s-10-1.82-14.26-1.51c-3.44.24-21.77,2.27-26.38,5a78.3,78.3,0,0,0,11.48,2c14.8,1.76,29.61,4.77,31.87-1.5s7.78-32.13,7.78-39.41S299.4,229.52,294.13,229.52Z" style="fill: rgb(255, 129, 174); opacity: 0.5; mix-blend-mode: multiply; transform-origin: 273.517px 258.163px;" class="animable"></path></g></g><path d="M265.77,221.24s1.26,9.28.75,13-9,4.26-12.54,4.77-5.53,2.76-6.53,8-6.78,18.57-8.53,21.33-3.77,4.52.25,8.53,5.52,5.78,20.33,7.53,29.61,4.77,31.87-1.5,7.78-32.13,7.78-39.41.25-14-5-14-11.79,3.76-14.05,3.76-2.51-9.53-2.51-9.53Z" style="fill: none; stroke: rgb(46, 53, 58); stroke-linecap: round; stroke-linejoin: round; transform-origin: 267.992px 253.962px;" id="elcintmb1qj4e" class="animable"></path><path d="M245.71,252.91a116.11,116.11,0,0,1-6.79,15.51c-1.76,2.76-3.77,4.52.25,8.53s5.52,5.78,20.33,7.53,29.61,4.77,31.87-1.5c2-5.53,6.51-26.24,7.56-36.07" style="fill: none; stroke: rgb(46, 53, 58); stroke-linecap: round; stroke-linejoin: round; transform-origin: 267.88px 266.837px;" id="ela4y1bu3bov" class="animable"></path><path d="M285.6,240.56c-4,0-8.79-.5-14.31,2s-6.27,3.51-14.05,3.51a22.85,22.85,0,0,0-10.09,2.3,88.52,88.52,0,0,1-3.59,10.07,32.56,32.56,0,0,0,10.67-.82,123.51,123.51,0,0,0,13.8-4.77c4-1.51,6.78,1.51,9.54,1.51s7-2,12.3-3c3.23-.61,6.18,1.42,8,3.08a77.88,77.88,0,0,0,1.31-10.86c0-2.57,0-5.08-.16-7.25-.28,0-.55,0-.84,0C289.87,236.55,289.61,240.56,285.6,240.56Z" style="fill: none; stroke: rgb(46, 53, 58); stroke-linecap: round; stroke-linejoin: round; transform-origin: 271.37px 247.449px;" id="elpb7nh0fi4so" class="animable"></path><g id="elqye9ibqk3jf"><g style="opacity: 0.5; mix-blend-mode: multiply; transform-origin: 273.055px 227.685px;" class="animable"><path d="M270.76,231.42a15.88,15.88,0,0,0,8.19,2.73,8.58,8.58,0,0,1,1.39-.89l-.26,0c-2.26,0-2.51-9.54-2.51-9.54l-11.8-2.5s.38,2.78.64,5.92A22.17,22.17,0,0,0,270.76,231.42Z" style="fill: rgb(255, 129, 174); transform-origin: 273.055px 227.685px;" id="eldxauniyc90o" class="animable"></path></g></g><polyline points="245.44 272.69 248.96 265.16 247.2 258.63" style="fill: rgb(255, 255, 255); stroke: rgb(46, 53, 58); stroke-linecap: round; stroke-linejoin: round; transform-origin: 247.2px 265.66px;" id="elgr4p5aiub1i" class="animable"></polyline><line x1="281.33" y1="270.43" x2="283.84" y2="257.13" style="fill: rgb(255, 255, 255); stroke: rgb(46, 53, 58); stroke-linecap: round; stroke-linejoin: round; transform-origin: 282.585px 263.78px;" id="eloahjengeb2" class="animable"></line><path d="M236.66,272.19s17.57,1.25,26.85,1.25,15.81-1.51,17.82-3,6-3.77,8.54-3.77,8.78,3,7.53,4.77-2.51,1.26-2.51,2,.75,1.51-.26,2.76-2,2.76-2,2.76.25,0,.25,1.26,0,1.25-1.51,1.5-3-.25-5.77-.25-6.78-2-7.53-2-20.83,3-25.6,3.27-9.29.5-13.8-2.76A6,6,0,0,1,236.66,272.19Z" style="fill: rgb(255, 255, 255); stroke: rgb(46, 53, 58); stroke-linecap: round; stroke-linejoin: round; transform-origin: 266.77px 274.776px;" id="el16qnn2468d2" class="animable"></path><path d="M343.33,323.49A25.18,25.18,0,0,0,349.6,319c2.26-2.51,6-5.77,7.78-4.27s0,4,.75,8.29-2,9.53-5.77,10.79a44.94,44.94,0,0,1-9.79,1.5Z" style="fill: rgb(255, 255, 255); stroke: rgb(46, 53, 58); stroke-linecap: round; stroke-linejoin: round; transform-origin: 350.412px 324.83px;" id="elb2ht2o35b86" class="animable"></path><path d="M214.32,251.1s-6.78-7.28-13.3-6-23.6,31.37-31.38,42.42-21.33,31.37-24.59,35.38-8.54,7.78-7.78,9.29,6.52,2,9.53.75,5-2.26,6.78-4,2.26-3.52,5-4.52,6.28-3.51,6.53-6.27-1.51-7.28,1.25-10.29,19.83-15.57,24.85-20.08S205,274.19,205,274.19s5,31.13,11.3,39.91,18.57,14.31,28.11,13.3-4-36.39-10.79-50.45S214.32,251.1,214.32,251.1Z" style="fill: rgb(255, 129, 174); stroke: rgb(46, 53, 58); stroke-linecap: round; stroke-linejoin: round; transform-origin: 192.45px 289.3px;" id="elobtlljjbazi" class="animable"></path><path d="M158.6,324.39c2.76-1,6.28-3.51,6.53-6.27.21-2.38-1.06-6.07.36-9-.46-.4-1-.84-1.62-1.32a11.69,11.69,0,0,0-6.69-2.23c-5.38,7.86-10.33,15.06-12.13,17.28-3.27,4-8.54,7.78-7.78,9.29s6.52,2,9.53.75,5-2.26,6.78-4S155.84,325.39,158.6,324.39Z" style="fill: rgb(255, 255, 255); stroke: rgb(46, 53, 58); stroke-linecap: round; stroke-linejoin: round; transform-origin: 151.343px 319.586px;" id="eles0szapxr3" class="animable"></path><path d="M267.28,307.83S249,279,238.16,260.89s-19.32-17.07-25.35-11.8-44.42,66.26-48.94,72-8,8.53-10.54,9.53-6.53,3-4.27,4a31.18,31.18,0,0,0,13.56,1.51c4.51-.76,7.28-1.26,9.28-3s1.26-8,3.52-8.78,5-2,5.27-3.76.25-6,.25-6,8.28-9.28,12.8-12.05a230.18,230.18,0,0,0,20.83-15.05c4.27-3.77,7.53-18.33,7.53-18.33s4,37.4,7.28,46.94S247.7,331.92,258,328.66,269.29,313.85,267.28,307.83Z" style="fill: rgb(255, 129, 174); stroke: rgb(46, 53, 58); stroke-linecap: round; stroke-linejoin: round; transform-origin: 208.26px 291.025px;" id="elr7a21lvqxwb" class="animable"></path><path d="M180,311.45a39.27,39.27,0,0,1,15.4-17.33c11.23-6.73,17.65-13.79,22.14-21.49S224,260.11,224,262.36s17,41.71,24.38,50.7,12.52,10.58,12.52,10.58" style="fill: none; stroke: rgb(46, 53, 58); stroke-linecap: round; stroke-linejoin: round; stroke-width: 0.75px; transform-origin: 220.45px 292.722px;" id="el2shmfnv25wa" class="animable"></path><path d="M153.33,330.66c-2.51,1-6.53,3-4.27,4a31.18,31.18,0,0,0,13.56,1.51c4.51-.76,7.28-1.26,9.28-3s1.26-8,3.52-8.78,5-2,5.27-3.76.25-6,.25-6l.69-.76a14.52,14.52,0,0,0-10.31-3.75c-3.69,5.63-6.43,9.74-7.45,11C159.35,326.9,155.84,329.66,153.33,330.66Z" style="fill: rgb(255, 255, 255); stroke: rgb(46, 53, 58); stroke-linecap: round; stroke-linejoin: round; transform-origin: 165.012px 323.233px;" id="elm4mxj224l4" class="animable"></path><path d="M324,326.65s-12.3-1.51-28.36-10.79-29.17-22.8-42-22.54-16.57,5.27-15.82,12.54S255.7,328.72,269,332s37.93,5.21,52,7,16.81,2,16.81,2l-.75-11.55Z" style="fill: rgb(46, 53, 58); stroke: rgb(46, 53, 58); stroke-linecap: round; stroke-linejoin: round; transform-origin: 287.769px 317.158px;" id="el6ecmmyf0wnl" class="animable"></path><path d="M323,315.35s-5.53,13.56-5,22.09,7.53,37.4,7,41.92-2.25,3.76-2.76,7.53a115.08,115.08,0,0,0-.5,11.79c0,1.26-2.26,5.77-3,8.28a3.63,3.63,0,0,0,3.51,4.52c2,0,7,.75,9.79-3.51s-2.26-17.82-1-21.84,14.05-34.38,14.05-43.92-2-28.11-6.27-31.37a7,7,0,0,0-8-.76" style="fill: rgb(46, 53, 58); stroke: rgb(46, 53, 58); stroke-linecap: round; stroke-linejoin: round; transform-origin: 331.527px 360.349px;" id="ely2f5qvkyrc" class="animable"></path><path d="M332,408c2.76-4.27-2.26-17.82-1-21.84.3-1,1.26-3.43,2.55-6.76a11.42,11.42,0,0,1-8.6-1.63,8.93,8.93,0,0,1,0,1.62c-.5,4.51-2.25,3.76-2.76,7.53a115.08,115.08,0,0,0-.5,11.79c0,1.26-2.26,5.77-3,8.28a3.63,3.63,0,0,0,3.51,4.52C324.25,411.48,329.27,412.23,332,408Z" style="fill: rgb(255, 255, 255); stroke: rgb(46, 53, 58); stroke-linecap: round; stroke-linejoin: round; transform-origin: 326.065px 394.657px;" id="elxjnl3ooafh" class="animable"></path><path d="M354.62,244.83c5.52,2.51,25.6,41.91,27.11,47.43s-21.09,18.33-25.1,20.33-10.79,4.77-13.05,4.77h-6.53c-2,0,1.51-2,1.51-2a47.16,47.16,0,0,1-8-.25c-2.51-.5,1-2.26,1-2.26s-6,1.76-6.28,1,7.28-5.52,7.28-5.52-4.77,1.25-6.52.5,4-3.51,7.28-3.26,13.55,5,13.55,5,19.07-15.82,19.07-18.33-19.32-21.58-19.32-21.58l-17.25-3.86" style="fill: rgb(255, 255, 255); stroke: rgb(46, 53, 58); stroke-linecap: round; stroke-linejoin: round; transform-origin: 353.537px 281.095px;" id="eltxvg44ouc9l" class="animable"></path><line x1="343.55" y1="268.25" x2="335.5" y2="260.67" style="fill: none; stroke: rgb(46, 53, 58); stroke-linecap: round; stroke-linejoin: round; stroke-width: 0.75px; transform-origin: 339.525px 264.46px;" id="ellsx9gzffryq" class="animable"></line><path d="M381.73,292.26c-.82-3-7.06-15.86-13.49-27.46-5.34,3.32-11.26,9.53-14.48,13.14,5.5,5.68,12.15,12.85,12.15,14.32,0,2.51-19.07,18.33-19.07,18.33s-10.29-4.77-13.55-5-9,2.51-7.28,3.26,6.52-.5,6.52-.5-7.53,4.77-7.28,5.52,6.28-1,6.28-1-3.51,1.76-1,2.26a47.16,47.16,0,0,0,8,.25s-3.52,2-1.51,2h6.53c2.26,0,9-2.76,13.05-4.77S383.23,297.79,381.73,292.26Z" style="fill: rgb(255, 255, 255); stroke: rgb(46, 53, 58); stroke-linecap: round; stroke-linejoin: round; transform-origin: 353.523px 291.09px;" id="elhkr5crl5a1r" class="animable"></path><path d="M331.53,312.84s4-3,6-3" style="fill: rgb(255, 255, 255); stroke: rgb(46, 53, 58); stroke-linecap: round; stroke-linejoin: round; transform-origin: 334.53px 311.34px;" id="el7yawgz5tewc" class="animable"></path><line x1="332.78" y1="315.35" x2="341.07" y2="311.84" style="fill: rgb(255, 255, 255); stroke: rgb(46, 53, 58); stroke-linecap: round; stroke-linejoin: round; transform-origin: 336.925px 313.595px;" id="eltlcxkzmry3m" class="animable"></line><path d="M338.56,315.35a31,31,0,0,1,5.52-.75" style="fill: rgb(255, 255, 255); stroke: rgb(46, 53, 58); stroke-linecap: round; stroke-linejoin: round; transform-origin: 341.32px 314.975px;" id="elgc6tp3y9098" class="animable"></path><path d="M276.31,190.11s8.79,6.78,9.29,16.07-2.51,16.06-5.52,19.32-7,2-11.05-.75a28.46,28.46,0,0,1-6.77-7,5.56,5.56,0,0,1-3.27-1.5,5.85,5.85,0,0,1-2-3.27s7.53-.25,9.28-5.27.25-9.54,2.76-13.05S276.31,190.11,276.31,190.11Z" style="fill: rgb(255, 255, 255); transform-origin: 271.322px 208.775px;" id="elfu20u2bl1xh" class="animable"></path><g style="clip-path: url(&quot;#freepik--clip-path-6--inject-1--inject-3&quot;); transform-origin: 271.326px 208.837px;" id="el6y2b61nkqaj" class="animable"><g id="ely6zvq0fag7r"><path d="M276.53,190.29h0l-.35-.15c-.76.19-4.87,1.31-7.15,4.49-2.51,3.51-1,8-2.76,13.05S257,213,257,213a4.57,4.57,0,0,0,.22.77c2.45,1,6.34,2.68,9,1.36,3.27-1.63,7.52-10.13,5.24-14.71S276.53,190.29,276.53,190.29Z" style="fill: rgb(255, 129, 174); opacity: 0.5; mix-blend-mode: multiply; transform-origin: 266.765px 202.878px;" class="animable"></path></g><g id="eljknwhg78o5p"><path d="M285.6,206.18c-.46-8.46-7.77-14.82-9.07-15.89a32.89,32.89,0,0,1,4.85,9,41.12,41.12,0,0,1,1.82,14c0,1.82-4.25-3.34-4.25-3.34s1.21,4.25-.61,4.85-.91,6.37-1.82,6.68,2.73,4.85-.6,4.85-8.49-3-8.49-3l2,1.79c3.87,2.56,7.7,3.62,10.61.47S286.1,215.46,285.6,206.18Z" style="fill: rgb(255, 129, 174); opacity: 0.5; mix-blend-mode: multiply; transform-origin: 276.541px 208.912px;" class="animable"></path></g></g><path d="M276.31,190.11s8.79,6.78,9.29,16.07-2.51,16.06-5.52,19.32-7,2-11.05-.75a28.46,28.46,0,0,1-6.77-7,5.56,5.56,0,0,1-3.27-1.5,5.85,5.85,0,0,1-2-3.27s7.53-.25,9.28-5.27.25-9.54,2.76-13.05S276.31,190.11,276.31,190.11Z" style="fill: none; stroke: rgb(46, 53, 58); stroke-linecap: round; stroke-linejoin: round; transform-origin: 271.322px 208.775px;" id="elvcoc5c3hlt" class="animable"></path><path d="M269.29,208.44s2.25,1.25,3.76,0" style="fill: none; stroke: rgb(46, 53, 58); stroke-linecap: round; stroke-linejoin: round; transform-origin: 271.17px 208.718px;" id="eliv2qsgj5qp" class="animable"></path><path d="M279.32,207.68s3.27,1,4.27-1" style="fill: none; stroke: rgb(46, 53, 58); stroke-linecap: round; stroke-linejoin: round; transform-origin: 281.455px 207.305px;" id="el52pf5wuuhru" class="animable"></path><path d="M274.05,202.91s-4.26-2-6,1.76" style="fill: none; stroke: rgb(46, 53, 58); stroke-linecap: round; stroke-linejoin: round; transform-origin: 271.05px 203.524px;" id="elctygg868ujb" class="animable"></path><path d="M279.07,201.66s3-2.26,4,.25" style="fill: none; stroke: rgb(46, 53, 58); stroke-linecap: round; stroke-linejoin: round; transform-origin: 281.07px 201.318px;" id="el6ko6m3j8rgw" class="animable"></path><path d="M277.82,220.73a4.31,4.31,0,0,1-3.52-.75" style="fill: none; stroke: rgb(46, 53, 58); stroke-linecap: round; stroke-linejoin: round; transform-origin: 276.06px 220.407px;" id="el7kqqbpzgler" class="animable"></path><path d="M279.32,203.67a31.91,31.91,0,0,0-.75,7.53c.25,3-.75,3.76-2.26,3.26" style="fill: none; stroke: rgb(46, 53, 58); stroke-linecap: round; stroke-linejoin: round; transform-origin: 277.815px 209.136px;" id="el5cl65qki1gc" class="animable"></path></g><defs>     <filter id="active" height="200%">         <feMorphology in="SourceAlpha" result="DILATED" operator="dilate" radius="2"></feMorphology>                <feFlood flood-color="#32DFEC" flood-opacity="1" result="PINK"></feFlood>        <feComposite in="PINK" in2="DILATED" operator="in" result="OUTLINE"></feComposite>        <feMerge>            <feMergeNode in="OUTLINE"></feMergeNode>            <feMergeNode in="SourceGraphic"></feMergeNode>        </feMerge>    </filter>    <filter id="hover" height="200%">        <feMorphology in="SourceAlpha" result="DILATED" operator="dilate" radius="2"></feMorphology>                <feFlood flood-color="#ff0000" flood-opacity="0.5" result="PINK"></feFlood>        <feComposite in="PINK" in2="DILATED" operator="in" result="OUTLINE"></feComposite>        <feMerge>            <feMergeNode in="OUTLINE"></feMergeNode>            <feMergeNode in="SourceGraphic"></feMergeNode>        </feMerge>            <feColorMatrix type="matrix" values="0   0   0   0   0                0   1   0   0   0                0   0   0   0   0                0   0   0   1   0 "></feColorMatrix>    </filter></defs><defs><clipPath id="freepik--clip-path--inject-1--inject-3"><path d="M324.75,210.94S323,219.48,324.5,225s1.26,7.28,9,10.54,21.33,7.28,22.84,10.54S333,309.58,333,309.58s-19.33-.25-31.13-.25a245.32,245.32,0,0,1-26.85-2s12.55-32.37,14.81-44.67,2.76-19.83,5.52-21.34,7-1,10.79-6.77,3.51-9,3.51-9S321,207.18,324.75,210.94Z" style="fill:#fff;stroke:#2e353a;stroke-linecap:round;stroke-linejoin:round"></path></clipPath><clipPath id="freepik--clip-path-2--inject-1--inject-3"><path d="M285.6,281.47s-4.77,17.32-12.05,23.09-12.05,5.27-15.31,3.27-12.55-22.34-11.54-27.36S285.6,281.47,285.6,281.47Z" style="fill:#fff;stroke:#2e353a;stroke-linecap:round;stroke-linejoin:round"></path></clipPath><clipPath id="freepik--clip-path-3--inject-1--inject-3"><path d="M324.5,225c-1.5-5.52.25-14.06.25-14.06-3.76-3.76-15.06,14.56-15.06,14.56s.25,3.26-3.51,9c-.23.35-.46.67-.69,1,2.33,3.75,7.27,10.81,11,10.07,3.51-.7,9.48-7.92,12.75-12.19C325.79,231.23,325.65,229.21,324.5,225Z" style="fill:#fff;stroke:#2e353a;stroke-linecap:round;stroke-linejoin:round"></path></clipPath><clipPath id="freepik--clip-path-4--inject-1--inject-3"><path d="M327.26,202.91s1.76-.25,2,3-1.25,5-2.51,5h-2a48.86,48.86,0,0,1-1.25,5.78c-1,3.76-1,5.77-9,9s-10,2.76-12.3-.75-2.25-16.31-2.51-21.84-1.25-11.79-1.25-11.79a19.12,19.12,0,0,1,5.77-4c3.77-1.75,15.31.25,18.83,2s2.25,10.79,2.25,10.79Z" style="fill:#fff;stroke:#2e353a;stroke-linecap:round;stroke-linejoin:round"></path></clipPath><clipPath id="freepik--clip-path-5--inject-1--inject-3"><path d="M265.77,221.24s1.26,9.28.75,13-9,4.26-12.54,4.77-5.53,2.76-6.53,8-6.78,18.57-8.53,21.33-3.77,4.52.25,8.53,5.52,5.78,20.33,7.53,29.61,4.77,31.87-1.5,7.78-32.13,7.78-39.41.25-14-5-14-11.79,3.76-14.05,3.76-2.51-9.53-2.51-9.53Z" style="fill:#fff;stroke:#2e353a;stroke-linecap:round;stroke-linejoin:round"></path></clipPath><clipPath id="freepik--clip-path-6--inject-1--inject-3"><path d="M276.31,190.11s8.79,6.78,9.29,16.07-2.51,16.06-5.52,19.32-7,2-11.05-.75a28.46,28.46,0,0,1-6.77-7,5.56,5.56,0,0,1-3.27-1.5,5.85,5.85,0,0,1-2-3.27s7.53-.25,9.28-5.27.25-9.54,2.76-13.05S276.31,190.11,276.31,190.11Z" style="fill:#fff;stroke:#2e353a;stroke-linecap:round;stroke-linejoin:round"></path></clipPath></defs></svg>